<svg data-v-e70ffe1f="" xmlns="http://www.w3.org/2000/svg" fill="none" viewBox="0 0 174 19" class="logo md:mx-auto select-none"><path fill="currentColor" d="M164.602.26c4.394 0 8.528 2.912 8.528 9.1s-4.134 9.1-8.528 9.1h-13.52V.26h13.52Zm-2.08 12.48c1.456 0 3.848 0 3.848-3.38s-2.392-3.38-3.848-3.38h-4.68v6.76h4.68ZM150.308.26v18.2h-6.76V.26h6.76Zm-7.272 6.968c0 2.652-1.222 4.836-3.224 6.006l3.224 5.226h-8.008l-2.522-4.264h-3.978v4.264h-6.76V.26h14.3c4.134 0 6.968 2.912 6.968 6.968ZM128.528 5.98v2.496h6.24c.676 0 1.508 0 1.508-1.248s-.832-1.248-1.508-1.248h-6.24Zm-19.096 6.214v-3.64h11.804v9.906h-3.9l-.494-2.626c-1.534 1.794-3.926 2.886-7.748 2.886-6.708 0-10.66-3.042-10.66-9.386 0-6.318 3.952-9.334 11.44-9.334 7.28 0 11.076 2.548 11.362 7.514h-6.916c-.26-.936-1.586-1.794-4.446-1.794-4.004 0-4.68 1.69-4.68 3.874 0 2.21.702 4.186 4.68 4.186 2.6 0 4.186-.364 4.446-1.586h-4.888ZM86.724 18.72c-8.008 0-11.44-3.042-11.44-9.386C75.284 3.016 78.716 0 86.724 0c7.982 0 11.44 3.042 11.44 9.334 0 6.318-3.458 9.386-11.44 9.386Zm0-5.72c3.978 0 4.68-1.742 4.68-3.666 0-1.898-.676-3.614-4.68-3.614s-4.68 1.69-4.68 3.614c0 1.95.702 3.666 4.68 3.666ZM68.249.26h6.76v18.2h-8.84L58.317 7.722V18.46h-6.76V.26h8.84l7.852 10.738V.26ZM39.587 18.72c-8.009 0-11.44-3.042-11.44-9.386C28.146 3.016 31.578 0 39.587 0c7.981 0 11.44 3.042 11.44 9.334 0 6.318-3.459 9.386-11.44 9.386Zm0-5.72c3.977 0 4.68-1.742 4.68-3.666 0-1.898-.677-3.614-4.68-3.614-4.005 0-4.68 1.69-4.68 3.614 0 1.95.702 3.666 4.68 3.666ZM27.872.26v18.2h-6.76V9.802l-4.966 8.658h-4.42L6.76 9.802v8.658H0V.26h8.32l5.616 10.4L19.552.26h8.32Z"></path></svg>