  <svg data-v-dfc77290="" data-v-51674e58="" xmlns="http://www.w3.org/2000/svg" fill="#75F348" viewBox="0 0 24 24" class="icon  inline-block smiley icon"><path fill="#75F348" d="M12.008 0c3.31 0 6.124 1.168 8.474 3.52C22.832 5.872 24 8.688 24 12c0 3.312-1.167 6.128-3.518 8.48-2.35 2.352-5.164 3.52-8.474 3.52-3.31 0-6.172-1.168-8.506-3.52C1.167 18.128 0 15.312 0 12c0-3.312 1.167-6.128 3.502-8.48C5.836 1.168 8.666 0 12.008 0ZM4.893 19.12c1.966 1.968 4.333 2.944 7.115 2.944s5.133-.976 7.083-2.944c1.951-1.968 2.926-4.336 2.926-7.12s-.975-5.152-2.926-7.12c-1.95-1.968-4.317-2.944-7.083-2.944s-5.149.992-7.115 2.944C2.926 6.848 1.95 9.216 1.95 12s.975 5.152 2.942 7.12Zm12.663-5.872h1.391c.224 0 .352.112.352.352v1.44c0 .24-.112.352-.352.352h-.687a.955.955 0 0 0-.736.32c-.192.208-.303.448-.303.72v.544c0 .24-.112.352-.352.352h-.992c-.303 0-.543.096-.735.304a1.065 1.065 0 0 0-.304.752v.848c0 .24-.128.352-.4.352H9.53c-.24 0-.352-.112-.352-.352v-.848c0-.304-.112-.544-.32-.752a1.036 1.036 0 0 0-.767-.304h-.944c-.272 0-.4-.112-.4-.352v-.544c0-.272-.095-.496-.303-.72a.93.93 0 0 0-.688-.32H5.07c-.272 0-.4-.112-.4-.352V13.6c0-.224.128-.352.4-.352h1.343c.224 0 .351.112.351.352v.736c0 .304.112.544.32.736.208.192.464.304.768.304h.687c.224 0 .352.112.352.352v.688c0 .272.096.496.304.72a.98.98 0 0 0 .735.32h4.158a.888.888 0 0 0 .687-.304c.224-.304.352-.544.352-.736v-.688c0-.224.112-.352.352-.352h.687c.304 0 .544-.112.752-.32a.98.98 0 0 0 .303-.72V13.6c0-.224.112-.352.352-.352h-.016Zm-9.066-.736H7.147c-.272 0-.4-.112-.4-.352V6.256c0-.224.128-.352.4-.352H8.49c.224 0 .352.112.352.352v5.904c0 .224-.112.352-.352.352Zm8.379 0h-1.391c-.272 0-.4-.112-.4-.352V6.256c0-.224.128-.352.4-.352h1.39c.225 0 .353.112.353.352v5.904c0 .224-.112.352-.352.352Z"></path></svg>